<?xml version="1.0" encoding="UTF-8"?>
<svg id="Lag_1" xmlns="http://www.w3.org/2000/svg" viewBox="0 0 156.02 75.09">
  <defs>
    <style>
      .cls-1 {
        fill: none;
        stroke: #9cc19f;
        stroke-miterlimit: 10;
        stroke-width: 1.5px;
      }

      .cls-2 {
        fill: #9cc19f;
      }
    </style>
  </defs>
  <g>
    <path class="cls-2" d="M28.96,37.36h-11.31l-8.58-12.71-.1,12.71H0V3.4h10.33c2.54,0,4.45.07,5.75.22,1.3.15,2.72.61,4.26,1.41,1.54.79,2.72,2.08,3.53,3.86.71,1.55,1.07,3.28,1.07,5.19,0,2.23-.58,4.11-1.73,5.63s-2.8,2.75-4.95,3.69l10.68,13.97ZM15.94,14.22c0-1.42-.49-2.47-1.46-3.13-.97-.66-2.19-.99-3.66-.99h-1.85v8.49h2.05c1.33,0,2.45-.36,3.36-1.07,1.04-.81,1.56-1.91,1.56-3.3Z"/>
    <path class="cls-2" d="M55.67,37.36h-7.9v-2.33c-.33.32-1.28.86-2.88,1.62-2.02.96-3.61,1.43-4.78,1.43-2.92,0-5.46-1.03-7.6-3.1-2.44-2.36-3.66-5.47-3.66-9.35,0-3.45,1.15-6.34,3.46-8.67,2.31-2.32,5.05-3.49,8.24-3.49,1.46,0,2.93.36,4.41,1.07,1.48.71,2.45,1.38,2.9,1.99l-.1.1v-2.57h7.9v23.29ZM48.06,25.72c0-1.42-.46-2.62-1.37-3.59-1.01-1.07-2.32-1.6-3.95-1.6s-2.79.52-3.68,1.55c-.89,1.04-1.34,2.25-1.34,3.64s.42,2.54,1.27,3.54c.98,1.13,2.26,1.7,3.85,1.7s2.94-.51,3.85-1.53c.91-1.02,1.37-2.26,1.37-3.71Z"/>
    <path class="cls-2" d="M87.01,37.36h-8.48v-2.47c-.65.71-1.48,1.34-2.49,1.89-1.56.87-3.14,1.31-4.73,1.31-3.51,0-6.37-1.23-8.58-3.69-2.08-2.33-3.12-5.22-3.12-8.68,0-3.11.88-5.79,2.63-8.05,2.05-2.65,4.84-3.98,8.38-3.98,2.01,0,3.88.45,5.61,1.36,1.07.55,1.84,1.1,2.29,1.65V0h8.48v37.36ZM78.82,25.79c0-1.35-.46-2.51-1.37-3.48-1.01-1.06-2.32-1.59-3.95-1.59s-2.84.51-3.75,1.52c-.91,1.01-1.37,2.2-1.37,3.55s.45,2.54,1.34,3.57c.89,1.03,2.15,1.54,3.78,1.54s2.96-.51,3.9-1.54c.94-1.03,1.41-2.22,1.41-3.57Z"/>
    <path class="cls-2" d="M117.62,37.36h-7.9v-2.33c-.33.32-1.28.86-2.88,1.62-2.02.96-3.61,1.43-4.78,1.43-2.92,0-5.46-1.03-7.6-3.1-2.44-2.36-3.66-5.47-3.66-9.35,0-3.45,1.15-6.34,3.46-8.67,2.31-2.32,5.05-3.49,8.24-3.49,1.46,0,2.93.36,4.41,1.07,1.48.71,2.45,1.38,2.9,1.99l-.1.1v-2.57h7.9v23.29ZM110.02,25.72c0-1.42-.46-2.62-1.37-3.59-1.01-1.07-2.32-1.6-3.95-1.6s-2.79.52-3.68,1.55c-.89,1.04-1.34,2.25-1.34,3.64s.42,2.54,1.27,3.54c.98,1.13,2.26,1.7,3.85,1.7s2.94-.51,3.85-1.53c.91-1.02,1.37-2.26,1.37-3.71Z"/>
    <path class="cls-2" d="M132.25,74.23h-8.77V14.07h8.77v60.16Z"/>
  </g>
  <path class="cls-2" d="M144.24,14.12h-11c0,3.02,2.48,5.5,5.5,5.5s5.5-2.48,5.5-5.5Z"/>
  <g>
    <path class="cls-1" d="M62.82,73.61h-11.29l-8.57-12.75-.1,12.75h-8.96v-34.08h10.32c2.53,0,4.45.07,5.74.22,1.3.15,2.72.62,4.26,1.41,1.54.8,2.72,2.09,3.53,3.87.71,1.56,1.07,3.29,1.07,5.21,0,2.24-.58,4.12-1.73,5.65-1.15,1.53-2.8,2.76-4.94,3.7l10.66,14.02ZM49.82,50.39c0-1.43-.49-2.47-1.46-3.14s-2.19-1-3.65-1h-1.85v8.52h2.04c1.33,0,2.45-.36,3.36-1.07,1.04-.81,1.56-1.91,1.56-3.31Z"/>
    <path class="cls-1" d="M88.57,63.73h-17.09c.16,1.14.54,2.08,1.12,2.82.81,1.01,1.93,1.51,3.36,1.51,1.01,0,1.78-.15,2.31-.44.54-.29,1.03-.79,1.48-1.51h8.37c-.49,2.27-1.61,4.12-3.36,5.55-2.17,1.79-5.13,2.68-8.86,2.68-4.06,0-7.25-1.06-9.57-3.19-2.32-2.13-3.48-5.01-3.48-8.64,0-3.83,1.09-6.88,3.26-9.15,2.3-2.4,5.53-3.6,9.69-3.6s7.48,1.33,9.79,3.99c1.98,2.27,2.97,5.1,2.97,8.47v1.51ZM79.96,58.61c-.23-1.01-.58-1.75-1.07-2.24-.65-.65-1.59-.97-2.82-.97s-2.22.29-2.87.88c-.52.49-.92,1.27-1.22,2.34h7.98Z"/>
    <path class="cls-1" d="M117.73,73.61h-7.89v-2.34c-.32.32-1.28.86-2.87,1.63-2.01.96-3.6,1.44-4.77,1.44-2.92,0-5.45-1.04-7.6-3.11-2.43-2.36-3.65-5.49-3.65-9.38,0-3.47,1.15-6.36,3.46-8.7,2.3-2.33,5.05-3.5,8.23-3.5,1.46,0,2.93.36,4.41,1.07,1.48.71,2.44,1.38,2.9,2-.03-.83-.07-1.66-.1-2.48h7.89v23.37ZM110.14,61.93c0-1.43-.46-2.63-1.36-3.6-1.01-1.07-2.32-1.61-3.94-1.61s-2.78.52-3.68,1.56c-.89,1.04-1.34,2.26-1.34,3.65s.42,2.55,1.27,3.55c.97,1.14,2.25,1.7,3.85,1.7s2.94-.51,3.85-1.53c.91-1.02,1.36-2.26,1.36-3.72Z"/>
    <path class="cls-1" d="M155.27,65.48c0,2.6-1.05,4.69-3.16,6.28-1.98,1.49-4.38,2.24-7.21,2.24-1.88,0-3.51-.19-4.89-.56-1.38-.37-2.8-1.05-4.26-2.02l3.02-6.38c1.04.71,2.09,1.27,3.13,1.68,1.04.41,2.04.61,2.99.61,1.34,0,2.01-.46,2.01-1.36,0-.78-.43-1.31-1.3-1.58-.87-.28-1.38-.45-1.54-.51l-2.89-1.22c-1.27-.55-2.21-1.25-2.81-2.09s-.9-2.01-.9-3.51c0-2.24.78-4.04,2.34-5.4,1.56-1.36,3.69-2.04,6.39-2.04,1.53,0,2.76.09,3.68.27.93.18,1.88.48,2.85.9l-1.41,5.45c-.42-.29-1.04-.54-1.83-.75-.8-.21-1.51-.32-2.12-.32s-1.13.09-1.54.27c-.41.18-.61.46-.61.85,0,.52.11.89.34,1.12.23.23.73.47,1.51.73l3.65,1.22c1.56.52,2.71,1.32,3.46,2.41.75,1.09,1.12,2.33,1.12,3.72Z"/>
  </g>
</svg>