<?xml version="1.0" encoding="UTF-8"?>
<svg id="Lag_1" xmlns="http://www.w3.org/2000/svg" viewBox="0 0 824.75 1045.46">
  <defs>
    <style>
      .cls-1, .cls-2, .cls-3, .cls-4, .cls-5, .cls-6, .cls-7, .cls-8, .cls-9 {
        stroke-miterlimit: 10;
      }

      .cls-1, .cls-3, .cls-4, .cls-5, .cls-6, .cls-7, .cls-9 {
        fill: none;
      }

      .cls-1, .cls-4, .cls-7 {
        stroke: #9cc19f;
      }

      .cls-1, .cls-5 {
        stroke-width: 3px;
      }

      .cls-10 {
        font-size: 16.5px;
      }

      .cls-10, .cls-11, .cls-2, .cls-12, .cls-13, .cls-14, .cls-15 {
        fill: #031838;
      }

      .cls-10, .cls-12, .cls-14 {
        font-family: MerriweatherSansRoman-Bold, 'Merriweather Sans';
        font-variation-settings: 'wght' 700;
        font-weight: 700;
      }

      .cls-11 {
        font-size: 47px;
      }

      .cls-11, .cls-13 {
        font-family: IntrepidBold, Intrepid;
      }

      .cls-2 {
        stroke: #000;
        stroke-width: .75px;
      }

      .cls-3 {
        stroke-width: 5px;
      }

      .cls-3, .cls-5, .cls-6, .cls-8, .cls-9 {
        stroke: #031838;
      }

      .cls-12 {
        font-size: 59.75px;
      }

      .cls-4, .cls-6 {
        stroke-width: 4px;
      }

      .cls-16, .cls-8 {
        fill: #9cc19f;
      }

      .cls-13 {
        font-size: 32px;
      }

      .cls-14 {
        font-size: 21.09px;
      }

      .cls-17 {
        fill: #ddd;
      }

      .cls-7, .cls-8, .cls-9 {
        stroke-width: 2px;
      }
    </style>
  </defs>
  <rect class="cls-16" width="824.75" height="1045.46"/>
  <rect class="cls-17" x="24.81" y="105.5" width="777.11" height="917.97"/>
  <text class="cls-11" transform="translate(81.89 75.13)"><tspan x="0" y="0">Hvordan støtter du os?</tspan></text>
  <path class="cls-17" d="M78.41,105.5H24.81v-54c17.86,18,35.73,36,53.59,54Z"/>
  <g>
    <g>
      <path class="cls-15" d="M189.11,217.68c-28.8,16.37-57.59,32.74-86.39,49.11.63-3.75,1.26-7.5,1.89-11.25-3.64-1.3-7.28-2.6-10.91-3.9.83-3.4,1.66-6.8,2.48-10.2-3.47-1.55-6.95-3.1-10.42-4.64,28.96-16.62,57.92-33.24,86.89-49.86-1.5,4.1-3.01,8.19-4.51,12.29,4.33.9,8.66,1.8,12.99,2.71-1.5,4.1-3.01,8.19-4.51,12.29,4.17,1.15,8.33,2.3,12.5,3.45Z"/>
      <polygon class="cls-1" points="168.57 225.54 120.11 253.35 106.5 229.28 154.96 201.47 168.57 225.54"/>
      <path class="cls-1" d="M145.94,222.82c2.61,4.62,1.01,10.51-3.58,13.14s-10.43,1.02-13.04-3.6-1.01-10.51,3.58-13.14,10.43-1.02,13.04,3.6Z"/>
      <path class="cls-7" d="M165.75,214.47c-28.8,16.37-57.59,32.74-86.39,49.11.63-3.75,1.26-7.5,1.89-11.25-3.64-1.3-7.28-2.6-10.91-3.9.83-3.4,1.66-6.8,2.48-10.2-3.47-1.55-6.95-3.1-10.42-4.64,28.96-16.62,57.92-33.24,86.89-49.86-1.5,4.1-3.01,8.19-4.51,12.29,4.33.9,8.66,1.8,12.99,2.71-1.5,4.1-3.01,8.19-4.51,12.29,4.17,1.15,8.33,2.3,12.5,3.45Z"/>
      <path class="cls-15" d="M165.51,214.55c-28.8,16.37-57.6,32.74-86.39,49.11.61-3.78,1.23-7.56,1.84-11.34-3.65-1.33-7.31-2.66-10.96-3.99.81-3.43,1.63-6.85,2.44-10.28-3.49-1.58-6.98-3.16-10.47-4.74,28.96-16.62,57.92-33.24,86.89-49.86-1.49,4.12-2.98,8.25-4.47,12.37,4.35.93,8.69,1.86,13.04,2.8-1.49,4.12-2.98,8.25-4.47,12.37,4.18,1.18,8.37,2.36,12.55,3.55Z"/>
    </g>
    <polygon class="cls-1" points="143.88 222.12 95.42 249.93 81.82 225.86 130.28 198.05 143.88 222.12"/>
    <path class="cls-1" d="M121.26,219.39c2.61,4.62,1.01,10.51-3.58,13.14s-10.43,1.02-13.04-3.6-1.01-10.51,3.58-13.14c4.59-2.63,10.43-1.02,13.04,3.6Z"/>
  </g>
  <g>
    <g>
      <path class="cls-15" d="M360.44,180.71v88.28h-62.28v-88.28h15.9c3.41,5.19,8.78,8.53,14.81,8.53s11.4-3.34,14.81-8.53h16.76Z"/>
      <polygon class="cls-15" points="314.77 196.55 284.69 226.86 268.89 210.94 298.97 180.64 314.77 196.55"/>
      <polygon class="cls-15" points="360.46 180.87 390.54 211.18 374.75 227.09 344.67 196.79 360.46 180.87"/>
    </g>
    <path class="cls-16" d="M326.67,201.05h14.66c-3.72,4.92-7.44,9.85-11.17,14.77h11.17c-6.51,8.2-13.03,16.41-19.54,24.61,1.63-6.09,3.26-12.19,4.89-18.28h-10.47c3.49-7.03,6.98-14.06,10.47-21.1Z"/>
  </g>
  <g>
    <polygon class="cls-2" points="549.8 189.54 549.8 268.49 491.67 268.49 491.67 189.54 494.61 189.54 494.61 204.4 546.85 204.4 546.85 189.54 549.8 189.54"/>
    <rect class="cls-16" x="494.61" y="196.76" width="52.13" height="68.76"/>
    <path class="cls-6" d="M577.34,223.92c0,15.37-12.55,28.01-27.8,28.01v-56.03c15.25,0,27.8,12.65,27.8,28.01Z"/>
    <path class="cls-6" d="M512.94,266.58v-30.98c.38-3.4-2.19-6.26-5.06-6.37-3-.11-5.86,2.8-5.48,6.37v30.98h10.53Z"/>
    <path class="cls-6" d="M539.06,266.58v-30.98c.38-3.4-2.19-6.26-5.06-6.37-3-.11-5.86,2.8-5.48,6.37v30.98h10.53Z"/>
    <path class="cls-3" d="M492.4,192.39c-2.95-1.01-4.82-3.6-4.64-6.04.25-3.36,4.27-4.85,6.33-5.18,4.12-.67,7.17,2.18,7.59,2.59.01-.37.23-5.34,4.22-7.77,3.63-2.21,7.99-.88,10.55,1.29,2.52,2.15,3.19,5.03,3.38,6.04-.24-3.28,1.52-6.27,4.22-7.34,3.9-1.55,7.32,1.87,7.59,2.16,3.01,3.12,2.18,7.43,2.11,7.77.38-4.76,3.55-8.63,7.59-9.5,5.31-1.14,11.14,3.09,11.39,8.2.22,4.42-3.82,7.47-4.22,7.77"/>
  </g>
  <g>
    <path class="cls-15" d="M617.71,807.25c7.83.15,15.66.3,23.49.45.44-9.53.89-19.05,1.33-28.58,2.07-1.64,4.28-3.29,6.65-4.91,7.92-5.43,15.67-9.28,22.6-12.06,2.22-15.18,4.43-30.37,6.65-45.55-3.69-.45-7.39-.89-11.08-1.34-1.77,10.12-3.55,20.24-5.32,30.37-6.5,5.66-13,11.31-19.5,16.97l-1.33-1.34c6.06-5.66,12.11-11.31,18.17-16.97-2.22-2.98-4.43-5.95-6.65-8.93-11.82,10.12-23.64,20.24-35.46,30.37.15,13.84.3,27.69.44,41.53Z"/>
    <path class="cls-15" d="M610.59,807.07c-7.83.15-15.66.3-23.49.45-.44-9.53-.89-19.05-1.33-28.58-2.07-1.64-4.28-3.29-6.65-4.91-7.92-5.43-15.67-9.28-22.6-12.06-2.22-15.18-4.43-30.37-6.65-45.55,3.69-.45,7.39-.89,11.08-1.34,1.77,10.12,3.55,20.24,5.32,30.37,6.5,5.66,13,11.31,19.5,16.97l1.33-1.34c-6.06-5.66-12.11-11.31-18.17-16.97,2.22-2.98,4.43-5.95,6.65-8.93,11.82,10.12,23.64,20.24,35.46,30.37-.15,13.84-.3,27.69-.44,41.53Z"/>
    <path class="cls-16" d="M613.09,754.56c-7.53-7.79-15.06-15.57-22.59-23.36-4.36-6.24-2.73-14.72,2.97-18.57,5.48-3.7,12.86-1.86,16.64,2.4,2.12,2.39,2.75,5.12,2.97,6.59.33-1.45,1.28-4.69,4.16-7.19,4.48-3.89,11.94-4.5,16.64-.6,5.43,4.51,6.1,14.13,0,20.36-6.94,6.79-13.87,13.58-20.81,20.36Z"/>
  </g>
  <g>
    <path class="cls-8" d="M662.52,197.56l3.77,6.67,7.5,1.56c2.28.47,3.18,3.24,1.62,4.97l-5.17,5.72.85,7.66c.26,2.32-2.12,4.04-4.24,3.07l-6.94-3.16-6.94,3.16c-2.13.97-4.5-.75-4.24-3.07l.85-7.66-5.17-5.72c-1.56-1.73-.66-4.49,1.62-4.97l7.5-1.56,3.77-6.67c1.15-2.04,4.09-2.04,5.24,0Z"/>
    <path class="cls-8" d="M662.52,233.37l3.77,6.67,7.5,1.56c2.28.47,3.18,3.24,1.62,4.97l-5.17,5.72.85,7.66c.26,2.32-2.12,4.04-4.24,3.07l-6.94-3.16-6.94,3.16c-2.13.97-4.5-.75-4.24-3.07l.85-7.66-5.17-5.72c-1.56-1.73-.66-4.49,1.62-4.97l7.5-1.56,3.77-6.67c1.15-2.04,4.09-2.04,5.24,0Z"/>
    <path class="cls-8" d="M703.23,197.56l3.77,6.67,7.5,1.56c2.28.47,3.18,3.24,1.62,4.97l-5.17,5.72.85,7.66c.26,2.32-2.12,4.04-4.24,3.07l-6.94-3.16-6.94,3.16c-2.13.97-4.5-.75-4.24-3.07l.85-7.66-5.17-5.72c-1.56-1.73-.66-4.49,1.62-4.97l7.5-1.56,3.77-6.67c1.15-2.04,4.09-2.04,5.24,0Z"/>
    <path class="cls-9" d="M703.23,233.37l3.77,6.67,7.5,1.56c2.28.47,3.18,3.24,1.62,4.97l-5.17,5.72.85,7.66c.26,2.32-2.12,4.04-4.24,3.07l-6.94-3.16-6.94,3.16c-2.13.97-4.5-.75-4.24-3.07l.85-7.66-5.17-5.72c-1.56-1.73-.66-4.49,1.62-4.97l7.5-1.56,3.77-6.67c1.15-2.04,4.09-2.04,5.24,0Z"/>
    <path class="cls-8" d="M743.95,197.56l3.77,6.67,7.5,1.56c2.28.47,3.18,3.24,1.62,4.97l-5.17,5.72.85,7.66c.26,2.32-2.12,4.04-4.24,3.07l-6.94-3.16-6.94,3.16c-2.13.97-4.5-.75-4.24-3.07l.85-7.66-5.17-5.72c-1.56-1.73-.66-4.49,1.62-4.97l7.5-1.56,3.77-6.67c1.15-2.04,4.09-2.04,5.24,0Z"/>
    <path class="cls-9" d="M743.95,233.37l3.77,6.67,7.5,1.56c2.28.47,3.18,3.24,1.62,4.97l-5.17,5.72.85,7.66c.26,2.32-2.12,4.04-4.24,3.07l-6.94-3.16-6.94,3.16c-2.13.97-4.5-.75-4.24-3.07l.85-7.66-5.17-5.72c-1.56-1.73-.66-4.49,1.62-4.97l7.5-1.56,3.77-6.67c1.15-2.04,4.09-2.04,5.24,0Z"/>
  </g>
  <text class="cls-13" transform="translate(63.88 309.52)"><tspan x="0" y="0">Billetter</tspan></text>
  <text class="cls-13" transform="translate(282.05 309.33)"><tspan x="0" y="0">Merch</tspan></text>
  <text class="cls-13" transform="translate(476.17 309.43)"><tspan x="0" y="0">Baren</tspan></text>
  <text class="cls-13" transform="translate(637.28 309.24)"><tspan x="0" y="0">Reviews</tspan></text>
  <text class="cls-14" transform="translate(61.98 349.3)"><tspan x="0" y="0">Den nemmeste måde at støtte os på, er simpelthen bare at møde op, </tspan><tspan x="0" y="28.76">deltage, drikke og fortælle om din oplevelse! </tspan></text>
  <text class="cls-10" transform="translate(527.37 877.69)"><tspan x="0" y="0">Kom og vær en del af </tspan><tspan x="58.16" y="22.5">holdet</tspan></text>
  <text class="cls-13" transform="translate(62.84 698.39)"><tspan x="0" y="0">Donations tiers</tspan></text>
  <g>
    <text class="cls-12" transform="translate(90.28 772.54)"><tspan x="0" y="0">S</tspan></text>
    <line class="cls-4" x1="98.75" y1="720.98" x2="99.25" y2="780.97"/>
    <line class="cls-4" x1="108.18" y1="720.98" x2="108.68" y2="780.97"/>
    <line class="cls-4" x1="116.62" y1="720.98" x2="117.11" y2="780.97"/>
  </g>
  <g>
    <text class="cls-12" transform="translate(71.42 852.54)"><tspan x="0" y="0">S</tspan></text>
    <line class="cls-4" x1="79.89" y1="800.97" x2="80.39" y2="860.97"/>
    <line class="cls-4" x1="89.32" y1="800.97" x2="89.82" y2="860.97"/>
    <line class="cls-4" x1="97.76" y1="800.97" x2="98.25" y2="860.97"/>
  </g>
  <g>
    <text class="cls-12" transform="translate(111.61 852.54)"><tspan x="0" y="0">S</tspan></text>
    <line class="cls-4" x1="120.09" y1="800.97" x2="120.59" y2="860.97"/>
    <line class="cls-4" x1="129.52" y1="800.97" x2="130.01" y2="860.97"/>
    <line class="cls-4" x1="137.95" y1="800.97" x2="138.45" y2="860.97"/>
  </g>
  <g>
    <text class="cls-12" transform="translate(128.98 933.04)"><tspan x="0" y="0">S</tspan></text>
    <line class="cls-4" x1="137.46" y1="881.47" x2="137.95" y2="941.47"/>
    <line class="cls-4" x1="146.89" y1="881.47" x2="147.38" y2="941.47"/>
    <line class="cls-4" x1="155.32" y1="881.47" x2="155.82" y2="941.47"/>
  </g>
  <g>
    <text class="cls-12" transform="translate(51.07 933.04)"><tspan x="0" y="0">S</tspan></text>
    <line class="cls-4" x1="59.55" y1="881.47" x2="60.04" y2="941.47"/>
    <line class="cls-4" x1="68.98" y1="881.47" x2="69.47" y2="941.47"/>
    <line class="cls-4" x1="77.41" y1="881.47" x2="77.91" y2="941.47"/>
  </g>
  <g>
    <text class="cls-12" transform="translate(91.27 933.04)"><tspan x="0" y="0">S</tspan></text>
    <line class="cls-4" x1="99.74" y1="881.47" x2="100.24" y2="941.47"/>
    <line class="cls-4" x1="109.17" y1="881.47" x2="109.67" y2="941.47"/>
    <line class="cls-4" x1="117.61" y1="881.47" x2="118.1" y2="941.47"/>
  </g>
  <rect class="cls-15" x="187.08" y="742.47" width="39.2" height="4.5"/>
  <rect class="cls-15" x="187.08" y="826.97" width="39.2" height="4.5"/>
  <rect class="cls-15" x="187.08" y="907.47" width="39.2" height="4.5"/>
  <text class="cls-13" transform="translate(556.73 848.06)"><tspan x="0" y="0">Frivillig</tspan></text>
  <text class="cls-14" transform="translate(248.71 749.17)"><tspan x="0" y="0">Oplåst bonus 1</tspan></text>
  <text class="cls-14" transform="translate(249.31 834.55)"><tspan x="0" y="0">Oplåst bonus 2</tspan></text>
  <text class="cls-14" transform="translate(248.77 917.54)"><tspan x="0" y="0">Oplåst bonus 3</tspan></text>
  <g>
    <path class="cls-15" d="M562.31,558.02c8.24-21.4-22.61-72.36-71.82-72.36s-80.06,50.97-71.82,72.36c12.62,32.77,131.02,32.77,143.64,0Z"/>
    <path class="cls-15" d="M664.64,558.02c8.24-21.4-22.61-72.36-71.82-72.36s-80.06,50.97-71.82,72.36c12.62,32.77,131.02,32.77,143.64,0Z"/>
    <path class="cls-15" d="M766.97,558.02c8.24-21.4-22.61-72.36-71.82-72.36s-80.06,50.97-71.82,72.36c12.62,32.77,131.02,32.77,143.64,0Z"/>
    <ellipse class="cls-15" cx="489.85" cy="469.64" rx="32.41" ry="32.66"/>
    <ellipse class="cls-15" cx="592.18" cy="469.64" rx="32.41" ry="32.66"/>
    <ellipse class="cls-15" cx="694.51" cy="469.64" rx="32.41" ry="32.66"/>
    <ellipse class="cls-16" cx="489.85" cy="469" rx="28.6" ry="28.82"/>
    <path class="cls-5" d="M512.36,469c-3.96-10.27-41.07-10.27-45.03,0-2.58,6.71,7.09,22.69,22.52,22.69s25.1-15.98,22.52-22.69Z"/>
    <path class="cls-17" d="M509.77,469.75c-1.1-4.82-13-6.3-19.98-6.26-6.86.04-18.54,1.59-19.53,6.26-.07.33-.23,1.1.17,1.74,1.65,2.62,9.19-2.44,19.35-2.5,10.4-.06,18.23,5.13,19.85,2.5.38-.63.22-1.36.13-1.74Z"/>
    <ellipse class="cls-16" cx="592.18" cy="469" rx="28.6" ry="28.82"/>
    <path class="cls-17" d="M611.99,469.75c-1.1-4.82-13-6.3-19.98-6.26-6.86.04-18.54,1.59-19.53,6.26-.07.33-.23,1.1.17,1.74,1.65,2.62,9.19-2.44,19.35-2.5,10.4-.06,18.23,5.13,19.85,2.5.38-.63.22-1.36.13-1.74Z"/>
    <path class="cls-5" d="M614.59,469c-3.96-10.27-41.07-10.27-45.03,0-2.58,6.71,7.09,22.69,22.52,22.69s25.1-15.98,22.52-22.69Z"/>
    <ellipse class="cls-16" cx="694.51" cy="469" rx="28.6" ry="28.82"/>
    <path class="cls-17" d="M714.22,469.75c-1.1-4.82-13-6.3-19.98-6.26-6.86.04-18.54,1.59-19.53,6.26-.07.33-.23,1.1.17,1.74,1.65,2.62,9.19-2.44,19.35-2.5,10.4-.06,18.23,5.13,19.85,2.5.38-.63.22-1.36.13-1.74Z"/>
    <path class="cls-5" d="M716.81,469c-3.96-10.27-41.07-10.27-45.03,0-2.58,6.71,7.09,22.69,22.52,22.69s25.1-15.98,22.52-22.69Z"/>
    <path class="cls-5" d="M480.26,452.36c-.02-1.46-3.42-3.57-6.62-2.45s-4.58,4.89-3.7,6.05c1.44,1.89,10.35-1.22,10.32-3.6Z"/>
    <path class="cls-5" d="M499.96,452.36c.02-1.46,3.42-3.57,6.62-2.45s4.58,4.89,3.7,6.05c-1.44,1.89-10.35-1.22-10.32-3.6Z"/>
    <path class="cls-5" d="M582.49,452.36c-.02-1.46-3.42-3.57-6.62-2.45s-4.58,4.89-3.7,6.05c1.44,1.89,10.35-1.22,10.32-3.6Z"/>
    <path class="cls-5" d="M602.18,452.36c.02-1.46,3.42-3.57,6.62-2.45s4.58,4.89,3.7,6.05c-1.44,1.89-10.35-1.22-10.32-3.6Z"/>
    <path class="cls-5" d="M684.22,452.36c-.02-1.46-3.42-3.57-6.62-2.45s-4.58,4.89-3.7,6.05c1.44,1.89,10.35-1.22,10.32-3.6Z"/>
    <path class="cls-5" d="M703.91,452.36c.02-1.46,3.42-3.57,6.62-2.45s4.58,4.89,3.7,6.05c-1.44,1.89-10.35-1.22-10.32-3.6Z"/>
  </g>
  <text class="cls-13" transform="translate(65.97 456.71)"><tspan x="0" y="0">Abonnement</tspan></text>
  <text class="cls-14" transform="translate(65.97 491.98)"><tspan x="0" y="0">Bliv en del af familien med et</tspan><tspan x="0" y="28.76">abonnement! </tspan><tspan x="0" y="57.53">Til abonnementet følger massere</tspan><tspan x="0" y="86.29">af fede bonuser!</tspan></text>
</svg>