<?xml version="1.0" encoding="UTF-8"?>
<svg id="Lag_1" xmlns="http://www.w3.org/2000/svg" viewBox="0 0 728.63 1803">
  <defs>
    <style>
      .cls-1, .cls-2, .cls-3, .cls-4, .cls-5, .cls-6, .cls-7, .cls-8, .cls-9 {
        stroke-miterlimit: 10;
      }

      .cls-1, .cls-3, .cls-4, .cls-5, .cls-6, .cls-7, .cls-9 {
        fill: none;
      }

      .cls-1, .cls-4, .cls-7 {
        stroke: #9cc19f;
      }

      .cls-1, .cls-5 {
        stroke-width: 3px;
      }

      .cls-10 {
        font-size: 17.56px;
      }

      .cls-10, .cls-2, .cls-11, .cls-12, .cls-13, .cls-14, .cls-15 {
        fill: #031838;
      }

      .cls-10, .cls-11, .cls-15 {
        font-family: MerriweatherSansRoman-Bold, 'Merriweather Sans';
        font-variation-settings: 'wght' 700;
        font-weight: 700;
      }

      .cls-2 {
        stroke: #000;
        stroke-width: .75px;
      }

      .cls-3 {
        stroke-width: 5px;
      }

      .cls-3, .cls-5, .cls-6, .cls-8, .cls-9 {
        stroke: #031838;
      }

      .cls-11 {
        font-size: 22.46px;
      }

      .cls-4, .cls-6 {
        stroke-width: 4px;
      }

      .cls-16, .cls-8 {
        fill: #9cc19f;
      }

      .cls-17 {
        fill: #ddd;
      }

      .cls-7, .cls-8, .cls-9 {
        stroke-width: 2px;
      }

      .cls-12 {
        font-size: 34.06px;
      }

      .cls-12, .cls-13 {
        font-family: IntrepidBold, Intrepid;
      }

      .cls-13 {
        font-size: 50.03px;
      }

      .cls-15 {
        font-size: 63.6px;
      }
    </style>
  </defs>
  <rect class="cls-16" width="728.63" height="1803"/>
  <rect class="cls-17" x="20.63" y="113.02" width="686" height="1634.98"/>
  <text class="cls-13" transform="translate(90.84 80.69)"><tspan x="0" y="0">Hvordan støtter du os?</tspan></text>
  <path class="cls-17" d="M78.1,113.02H20.61v-57.48c19.16,19.16,38.32,38.32,57.48,57.48Z"/>
  <g>
    <g>
      <path class="cls-14" d="M245.84,232.44c-30.89,17.43-61.78,34.86-92.66,52.28.68-3.99,1.35-7.98,2.03-11.97-3.9-1.38-7.8-2.77-11.71-4.15.89-3.62,1.78-7.24,2.67-10.86-3.73-1.65-7.45-3.3-11.18-4.94,31.06-17.69,62.13-35.39,93.19-53.08-1.61,4.36-3.23,8.72-4.84,13.08,4.64.96,9.29,1.92,13.93,2.88-1.61,4.36-3.23,8.72-4.84,13.08,4.47,1.23,8.94,2.45,13.4,3.68Z"/>
      <rect class="cls-1" x="160.61" y="228.06" width="59.82" height="29.48" transform="translate(-95.2 126.11) rotate(-29.66)"/>
      <circle class="cls-1" cx="190.62" cy="242.99" r="10.25"/>
      <path class="cls-7" d="M220.78,229.02c-30.89,17.43-61.78,34.86-92.66,52.28.68-3.99,1.35-7.98,2.03-11.97-3.9-1.38-7.8-2.77-11.71-4.15.89-3.62,1.78-7.24,2.67-10.86-3.73-1.65-7.45-3.3-11.18-4.94,31.06-17.69,62.13-35.39,93.19-53.08-1.61,4.36-3.23,8.72-4.84,13.08,4.64.96,9.29,1.92,13.93,2.88-1.61,4.36-3.23,8.72-4.84,13.08,4.47,1.23,8.94,2.45,13.4,3.68Z"/>
      <path class="cls-14" d="M220.52,229.11c-30.89,17.43-61.78,34.85-92.66,52.28.66-4.02,1.32-8.05,1.98-12.07-3.92-1.41-7.84-2.83-11.76-4.24.87-3.65,1.75-7.29,2.62-10.94-3.74-1.68-7.49-3.36-11.23-5.04,31.06-17.69,62.13-35.39,93.19-53.08-1.6,4.39-3.19,8.78-4.79,13.17,4.66.99,9.33,1.98,13.99,2.98-1.6,4.39-3.19,8.78-4.79,13.17,4.49,1.26,8.97,2.52,13.46,3.77Z"/>
    </g>
    <rect class="cls-1" x="134.13" y="224.42" width="59.82" height="29.48" transform="translate(-96.86 112.53) rotate(-29.66)"/>
    <circle class="cls-1" cx="164.15" cy="239.34" r="10.25"/>
  </g>
  <g>
    <g>
      <path class="cls-14" d="M519.6,342.08v93.98h-66.8v-93.98h17.05c3.66,5.52,9.42,9.08,15.89,9.08s12.23-3.56,15.89-9.08h17.97Z"/>
      <rect class="cls-14" x="423.2" y="354.63" width="45.63" height="23.96" transform="translate(-128.6 422.76) rotate(-45)"/>
      <rect class="cls-14" x="504.47" y="354.88" width="45.63" height="23.96" transform="translate(640.72 999.12) rotate(-135)"/>
    </g>
    <path class="cls-16" d="M483.38,363.74h15.72c-3.99,5.24-7.99,10.48-11.98,15.72h11.98c-6.99,8.73-13.97,17.47-20.96,26.2,1.75-6.49,3.49-12.98,5.24-19.46h-11.23c3.74-7.49,7.49-14.97,11.23-22.46Z"/>
  </g>
  <g>
    <path class="cls-14" d="M364.55,1179.07c8.4.16,16.8.32,25.19.48.48-10.14.95-20.28,1.43-30.42,2.22-1.75,4.59-3.5,7.13-5.23,8.5-5.78,16.81-9.88,24.24-12.84,2.38-16.16,4.75-32.33,7.13-48.49-3.96-.48-7.92-.95-11.88-1.43-1.9,10.78-3.8,21.55-5.7,32.33-6.97,6.02-13.94,12.04-20.92,18.06l-1.43-1.43c6.5-6.02,12.99-12.04,19.49-18.06-2.38-3.17-4.75-6.34-7.13-9.51-12.68,10.78-25.35,21.55-38.03,32.33.16,14.74.32,29.47.48,44.21Z"/>
    <path class="cls-14" d="M356.91,1178.88c-8.4.16-16.8.32-25.19.48-.48-10.14-.95-20.28-1.43-30.42-2.22-1.75-4.59-3.5-7.13-5.23-8.5-5.78-16.81-9.88-24.24-12.84-2.38-16.16-4.75-32.33-7.13-48.49,3.96-.48,7.92-.95,11.88-1.43,1.9,10.78,3.8,21.55,5.7,32.33,6.97,6.02,13.94,12.04,20.92,18.06l1.43-1.43c-6.5-6.02-12.99-12.04-19.49-18.06,2.38-3.17,4.75-6.34,7.13-9.51,12.68,10.78,25.35,21.55,38.03,32.33-.16,14.74-.32,29.47-.48,44.21Z"/>
    <path class="cls-16" d="M359.59,1122.98c-8.08-8.29-16.15-16.58-24.23-24.87-4.68-6.64-2.93-15.67,3.19-19.77,5.88-3.94,13.79-1.98,17.85,2.55,2.28,2.54,2.95,5.45,3.19,7.01.35-1.54,1.37-4.99,4.46-7.65,4.81-4.14,12.81-4.79,17.85-.64,5.83,4.8,6.54,15.04,0,21.68-7.44,7.23-14.88,14.45-22.32,21.68Z"/>
  </g>
  <g>
    <path class="cls-8" d="M250.42,361.69l4.24,7.44,8.38,1.73c2.29.47,3.19,3.25,1.62,4.98l-5.77,6.33.95,8.51c.26,2.32-2.11,4.04-4.23,3.08l-7.8-3.53-7.8,3.53c-2.13.96-4.49-.76-4.23-3.08l.95-8.51-5.77-6.33c-1.57-1.72-.67-4.5,1.62-4.98l8.38-1.73,4.24-7.44c1.15-2.03,4.08-2.03,5.23,0Z"/>
    <path class="cls-8" d="M250.42,399.81l4.24,7.44,8.38,1.73c2.29.47,3.19,3.25,1.62,4.98l-5.77,6.33.95,8.51c.26,2.32-2.11,4.04-4.23,3.08l-7.8-3.53-7.8,3.53c-2.13.96-4.49-.76-4.23-3.08l.95-8.51-5.77-6.33c-1.57-1.72-.67-4.5,1.62-4.98l8.38-1.73,4.24-7.44c1.15-2.03,4.08-2.03,5.23,0Z"/>
    <path class="cls-8" d="M294.09,361.69l4.24,7.44,8.38,1.73c2.29.47,3.19,3.25,1.62,4.98l-5.77,6.33.95,8.51c.26,2.32-2.11,4.04-4.23,3.08l-7.8-3.53-7.8,3.53c-2.13.96-4.49-.76-4.23-3.08l.95-8.51-5.77-6.33c-1.57-1.72-.67-4.5,1.62-4.98l8.38-1.73,4.24-7.44c1.15-2.03,4.08-2.03,5.23,0Z"/>
    <path class="cls-9" d="M294.09,399.81l4.24,7.44,8.38,1.73c2.29.47,3.19,3.25,1.62,4.98l-5.77,6.33.95,8.51c.26,2.32-2.11,4.04-4.23,3.08l-7.8-3.53-7.8,3.53c-2.13.96-4.49-.76-4.23-3.08l.95-8.51-5.77-6.33c-1.57-1.72-.67-4.5,1.62-4.98l8.38-1.73,4.24-7.44c1.15-2.03,4.08-2.03,5.23,0Z"/>
    <path class="cls-8" d="M337.76,361.69l4.24,7.44,8.38,1.73c2.29.47,3.19,3.25,1.62,4.98l-5.77,6.33.95,8.51c.26,2.32-2.11,4.04-4.23,3.08l-7.8-3.53-7.8,3.53c-2.13.96-4.49-.76-4.23-3.08l.95-8.51-5.77-6.33c-1.57-1.72-.67-4.5,1.62-4.98l8.38-1.73,4.24-7.44c1.15-2.03,4.08-2.03,5.23,0Z"/>
    <path class="cls-9" d="M337.76,399.81l4.24,7.44,8.38,1.73c2.29.47,3.19,3.25,1.62,4.98l-5.77,6.33.95,8.51c.26,2.32-2.11,4.04-4.23,3.08l-7.8-3.53-7.8,3.53c-2.13.96-4.49-.76-4.23-3.08l.95-8.51-5.77-6.33c-1.57-1.72-.67-4.5,1.62-4.98l8.38-1.73,4.24-7.44c1.15-2.03,4.08-2.03,5.23,0Z"/>
  </g>
  <text class="cls-12" transform="translate(111.52 330.21)"><tspan x="0" y="0">Billetter</tspan></text>
  <text class="cls-12" transform="translate(435.53 479.01)"><tspan x="0" y="0">Merch</tspan></text>
  <text class="cls-12" transform="translate(553.73 330.11)"><tspan x="0" y="0">Baren</tspan></text>
  <text class="cls-12" transform="translate(223.53 480.91)"><tspan x="0" y="0">Reviews</tspan></text>
  <text class="cls-11" transform="translate(171.63 541.56)"><tspan x="0" y="0">Den nemmeste måde at støtte os på, </tspan><tspan x="29.36" y="30.62">er simpelthen bare at møde op, </tspan><tspan x="-44.15" y="61.24">deltage, drikke og fortælle om din oplevelse! </tspan></text>
  <text class="cls-10" transform="translate(267.65 1254.06)"><tspan x="0" y="0">Kom og vær en del af </tspan><tspan x="61.91" y="23.95">holdet</tspan></text>
  <text class="cls-12" transform="translate(299.14 1222.51)"><tspan x="0" y="0">Frivillig</tspan></text>
  <g>
    <text class="cls-12" transform="translate(186.4 1383.18)"><tspan x="0" y="0">Donations tiers</tspan></text>
    <g>
      <text class="cls-15" transform="translate(215.83 1462.12)"><tspan x="0" y="0">S</tspan></text>
      <line class="cls-4" x1="224.92" y1="1407.23" x2="225.45" y2="1471.1"/>
      <line class="cls-4" x1="235.03" y1="1407.23" x2="235.56" y2="1471.1"/>
      <line class="cls-4" x1="244.08" y1="1407.23" x2="244.61" y2="1471.1"/>
    </g>
    <g>
      <text class="cls-15" transform="translate(195.6 1547.29)"><tspan x="0" y="0">S</tspan></text>
      <line class="cls-4" x1="204.69" y1="1492.39" x2="205.23" y2="1556.26"/>
      <line class="cls-4" x1="214.81" y1="1492.39" x2="215.34" y2="1556.26"/>
      <line class="cls-4" x1="223.85" y1="1492.39" x2="224.39" y2="1556.26"/>
    </g>
    <g>
      <text class="cls-15" transform="translate(238.72 1547.29)"><tspan x="0" y="0">S</tspan></text>
      <line class="cls-4" x1="247.81" y1="1492.39" x2="248.34" y2="1556.26"/>
      <line class="cls-4" x1="257.92" y1="1492.39" x2="258.45" y2="1556.26"/>
      <line class="cls-4" x1="266.97" y1="1492.39" x2="267.5" y2="1556.26"/>
    </g>
    <g>
      <text class="cls-15" transform="translate(257.35 1632.98)"><tspan x="0" y="0">S</tspan></text>
      <line class="cls-4" x1="266.44" y1="1578.08" x2="266.97" y2="1641.95"/>
      <line class="cls-4" x1="276.55" y1="1578.08" x2="277.08" y2="1641.95"/>
      <line class="cls-4" x1="285.6" y1="1578.08" x2="286.13" y2="1641.95"/>
    </g>
    <g>
      <text class="cls-15" transform="translate(173.78 1632.98)"><tspan x="0" y="0">S</tspan></text>
      <line class="cls-4" x1="182.87" y1="1578.08" x2="183.4" y2="1641.95"/>
      <line class="cls-4" x1="192.98" y1="1578.08" x2="193.52" y2="1641.95"/>
      <line class="cls-4" x1="202.03" y1="1578.08" x2="202.56" y2="1641.95"/>
    </g>
    <g>
      <text class="cls-15" transform="translate(216.89 1632.98)"><tspan x="0" y="0">S</tspan></text>
      <line class="cls-4" x1="225.98" y1="1578.08" x2="226.52" y2="1641.95"/>
      <line class="cls-4" x1="236.1" y1="1578.08" x2="236.63" y2="1641.95"/>
      <line class="cls-4" x1="245.15" y1="1578.08" x2="245.68" y2="1641.95"/>
    </g>
    <rect class="cls-14" x="319.66" y="1430.11" width="42.05" height="4.79"/>
    <rect class="cls-14" x="319.66" y="1520.07" width="42.05" height="4.79"/>
    <rect class="cls-14" x="319.66" y="1605.76" width="42.05" height="4.79"/>
    <text class="cls-11" transform="translate(385.76 1437.24)"><tspan x="0" y="0">Oplåst bonus 1</tspan></text>
    <text class="cls-11" transform="translate(386.4 1528.13)"><tspan x="0" y="0">Oplåst bonus 2</tspan></text>
    <text class="cls-11" transform="translate(385.82 1616.48)"><tspan x="0" y="0">Oplåst bonus 3</tspan></text>
  </g>
  <g>
    <path class="cls-14" d="M333.12,805.75c8.84-22.78-24.25-77.03-77.03-77.03s-85.87,54.26-77.03,77.03c13.54,34.89,140.53,34.89,154.07,0Z"/>
    <path class="cls-14" d="M442.88,805.75c8.84-22.78-24.25-77.03-77.03-77.03s-85.87,54.26-77.03,77.03c13.54,34.89,140.53,34.89,154.07,0Z"/>
    <path class="cls-14" d="M552.64,805.75c8.84-22.78-24.25-77.03-77.03-77.03s-85.87,54.26-77.03,77.03c13.54,34.89,140.53,34.89,154.07,0Z"/>
    <circle class="cls-14" cx="255.41" cy="711.67" r="34.77"/>
    <circle class="cls-14" cx="365.16" cy="711.67" r="34.77"/>
    <circle class="cls-14" cx="474.92" cy="711.67" r="34.77"/>
    <circle class="cls-16" cx="255.41" cy="710.99" r="30.68"/>
    <path class="cls-5" d="M279.56,710.99c-4.24-10.94-44.06-10.94-48.3,0-2.77,7.14,7.6,24.15,24.15,24.15s26.92-17.01,24.15-24.15Z"/>
    <path class="cls-17" d="M276.77,711.78c-1.18-5.13-13.95-6.71-21.43-6.67-7.36.04-19.88,1.69-20.94,6.67-.08.36-.25,1.17.19,1.85,1.77,2.79,9.86-2.59,20.76-2.66,11.15-.07,19.55,5.46,21.29,2.66.41-.67.23-1.45.14-1.85Z"/>
    <circle class="cls-16" cx="365.16" cy="710.99" r="30.68"/>
    <path class="cls-17" d="M386.42,711.78c-1.18-5.13-13.95-6.71-21.43-6.67-7.36.04-19.88,1.69-20.94,6.67-.08.36-.25,1.17.19,1.85,1.77,2.79,9.86-2.59,20.76-2.66,11.15-.07,19.55,5.46,21.29,2.66.41-.67.23-1.45.14-1.85Z"/>
    <path class="cls-5" d="M389.2,710.99c-4.24-10.94-44.06-10.94-48.3,0-2.77,7.14,7.6,24.15,24.15,24.15s26.92-17.01,24.15-24.15Z"/>
    <circle class="cls-16" cx="474.92" cy="710.99" r="30.68"/>
    <path class="cls-17" d="M496.06,711.78c-1.18-5.13-13.95-6.71-21.43-6.67-7.36.04-19.88,1.69-20.94,6.67-.08.36-.25,1.17.19,1.85,1.77,2.79,9.86-2.59,20.76-2.66,11.15-.07,19.55,5.46,21.29,2.66.41-.67.23-1.45.14-1.85Z"/>
    <path class="cls-5" d="M498.85,710.99c-4.24-10.94-44.06-10.94-48.3,0-2.77,7.14,7.6,24.15,24.15,24.15s26.92-17.01,24.15-24.15Z"/>
    <path class="cls-5" d="M245.13,693.27c-.02-1.56-3.67-3.8-7.1-2.61s-4.91,5.21-3.96,6.44c1.54,2.01,11.1-1.3,11.06-3.83Z"/>
    <path class="cls-5" d="M266.25,693.27c.02-1.56,3.67-3.8,7.1-2.61,3.43,1.19,4.91,5.21,3.96,6.44-1.54,2.01-11.1-1.3-11.06-3.83Z"/>
    <path class="cls-5" d="M354.77,693.27c-.02-1.56-3.67-3.8-7.1-2.61s-4.91,5.21-3.96,6.44c1.54,2.01,11.1-1.3,11.06-3.83Z"/>
    <path class="cls-5" d="M375.89,693.27c.02-1.56,3.67-3.8,7.1-2.61,3.43,1.19,4.91,5.21,3.96,6.44-1.54,2.01-11.1-1.3-11.06-3.83Z"/>
    <path class="cls-5" d="M463.88,693.27c-.02-1.56-3.67-3.8-7.1-2.61s-4.91,5.21-3.96,6.44c1.54,2.01,11.1-1.3,11.06-3.83Z"/>
    <path class="cls-5" d="M485.01,693.27c.02-1.56,3.67-3.8,7.1-2.61,3.43,1.19,4.91,5.21,3.96,6.44-1.54,2.01-11.1-1.3-11.06-3.83Z"/>
  </g>
  <text class="cls-12" transform="translate(254.63 888.9)"><tspan x="0" y="0">Abonnement</tspan></text>
  <text class="cls-11" transform="translate(204.38 926.45)"><tspan x="0" y="0">Bliv en del af familien med et</tspan><tspan x="81.31" y="30.62">abonnement! </tspan><tspan x="-25.2" y="61.24">Til abonnementet følger massere</tspan><tspan x="69.07" y="91.86">af fede bonuser!</tspan></text>
  <g>
    <polygon class="cls-2" points="632.82 217.32 632.82 296.27 574.69 296.27 574.69 217.32 577.63 217.32 577.63 232.18 629.87 232.18 629.87 217.32 632.82 217.32"/>
    <rect class="cls-16" x="577.63" y="224.54" width="52.13" height="68.76"/>
    <path class="cls-6" d="M660.36,251.7c0,15.37-12.55,28.01-27.8,28.01v-56.03c15.25,0,27.8,12.65,27.8,28.01Z"/>
    <path class="cls-6" d="M595.96,294.36v-30.98c.38-3.4-2.19-6.26-5.06-6.37-3-.11-5.86,2.8-5.48,6.37v30.98h10.53Z"/>
    <path class="cls-6" d="M622.08,294.36v-30.98c.38-3.4-2.19-6.26-5.06-6.37-3-.11-5.86,2.8-5.48,6.37v30.98h10.53Z"/>
    <path class="cls-3" d="M575.42,220.17c-2.95-1.01-4.82-3.6-4.64-6.04.25-3.36,4.27-4.85,6.33-5.18,4.12-.67,7.17,2.18,7.59,2.59.01-.37.23-5.34,4.22-7.77,3.63-2.21,7.99-.88,10.55,1.29,2.52,2.15,3.19,5.03,3.38,6.04-.24-3.28,1.52-6.27,4.22-7.34,3.9-1.55,7.32,1.87,7.59,2.16,3.01,3.12,2.18,7.43,2.11,7.77.38-4.76,3.55-8.63,7.59-9.5,5.31-1.14,11.14,3.09,11.39,8.2.22,4.42-3.82,7.47-4.22,7.77"/>
  </g>
</svg>